<?xml version="1.0" encoding="utf-8"?>
<!-- Generator: Adobe Illustrator 16.0.4, SVG Export Plug-In . SVG Version: 6.00 Build 0)  -->
<!DOCTYPE svg PUBLIC "-//W3C//DTD SVG 1.1//EN" "http://www.w3.org/Graphics/SVG/1.1/DTD/svg11.dtd">
<svg version="1.1" id="Layer_1" xmlns="http://www.w3.org/2000/svg" xmlns:xlink="http://www.w3.org/1999/xlink" x="0px" y="0px"
	 viewBox="0 0 920 260" enable-background="new 0 0 920 260" xml:space="preserve">
<g>
	<path fill="none" stroke="#34495E" stroke-miterlimit="10" d="M390.489,155.318c2.884,0,5.387,2.182,6.655,5.182h100.6h1.108h0.888
		l0,0l39.318,23h152.9c1.269-4,3.771-5.369,6.654-5.369c4.165,0,7.541,2.688,7.541,6.853s-3.376,7.679-7.541,7.679
		c-3.002,0-5.588-0.162-6.8-4.162H537.49l0,0l-40.416-22H397.29c-1.213,3-3.799,3.506-6.801,3.506c-4.163,0-7.54-3.178-7.54-7.344
		C382.949,158.497,386.326,155.318,390.489,155.318z"/>
	<path fill="none" stroke="#34495E" stroke-miterlimit="10" d="M399.086,128.971c2.884,0,5.387,2.529,6.655,5.529h104.888l0,0l0,0
		l33.071,16.878c1.317-1.123,2.927-2.239,4.792-2.239c4.166,0,7.494,3.158,7.494,7.323s-3.4,7.432-7.564,7.432
		c-3.971,0-7.229-1.985-7.523-5.88L507.834,140.5H405.887c-1.214,2-3.798,3.159-6.801,3.159c-4.163,0-7.54-3.18-7.54-7.343
		C391.546,132.15,394.923,128.971,399.086,128.971z"/>
	<path fill="none" stroke="#34495E" stroke-miterlimit="10" d="M207.244,199.489c3.062,0,5.691,4.011,6.873,5.011h107.591l49.501-58
		h128.965h5l38.889,22h132.965c1.27-3,3.772-5.109,6.654-5.109c4.165,0,7.542,2.819,7.542,6.984c0,4.164-3.377,7.982-7.542,7.982
		c-3.002,0-5.586,0.143-6.8-3.857H542.264l-38.889-23H374.383l-49.553,59.027l-111.018-0.209c-1.294,2.291-3.748,3.766-6.568,3.766
		c-4.164,0-7.54-3.133-7.54-7.297S203.08,199.489,207.244,199.489z"/>
	<path fill="none" stroke="#34495E" stroke-miterlimit="10" d="M346.032,69.836c-2.883,0-5.385,2.664-6.654,4.664h-100.6h-1.109
		h-0.886l0,0l-39.319,25h-152.9c-1.27-5-3.772-5.851-6.654-5.851c-4.165,0-7.541,2.448-7.541,6.613s3.376,8.038,7.541,8.038
		c3.001,0,5.588-1.8,6.8-3.8h154.323l0,0l40.416-22h99.785c1.212,1,3.798,3.025,6.799,3.025c4.164,0,7.541-3.68,7.541-7.845
		S350.196,69.836,346.032,69.836z"/>
	<path fill="none" stroke="#34495E" stroke-miterlimit="10" d="M337.435,43.489c-2.881,0-5.385,3.011-6.653,5.011H225.893l0,0l0,0
		l-33.071,17.396c-1.316-1.122-2.925-1.98-4.792-1.98c-4.164,0-7.493,3.289-7.493,7.454s3.4,7.497,7.565,7.497
		c3.969,0,7.229-1.971,7.522-5.867L228.689,55.5h101.945c1.215,3,3.799,3.178,6.8,3.178c4.166,0,7.542-3.43,7.542-7.593
		C344.977,46.918,341.601,43.489,337.435,43.489z"/>
	<path fill="none" stroke="#34495E" stroke-miterlimit="10" d="M529.277,114.507c-3.062,0-5.69,2.993-6.871,4.993H414.813l-49.5-59
		H236.35h-5.003l-38.887,22H59.495c-1.269-3-3.771-4.591-6.656-4.591c-4.162,0-7.54,3.079-7.54,7.245
		c0,4.164,3.378,8.593,7.54,8.593c3.003,0,5.588-0.247,6.801-3.247h134.618l38.89-23H362.14l49.553,58.547l111.019-0.452
		c1.293,2.292,3.746,3.646,6.566,3.646c4.165,0,7.541-3.203,7.541-7.366C536.818,117.711,533.442,114.507,529.277,114.507z"/>
	<path fill="none" stroke="#34495E" stroke-miterlimit="10" d="M309.706,184.496c-2.885,0-5.388,3.004-6.656,5.004H198.162l0,0l0,0
		l-33.071,17.403c-1.317-1.122-2.927-1.977-4.793-1.977c-4.163,0-7.493,3.291-7.493,7.456c0,4.164,3.4,7.498,7.566,7.498
		c3.969,0,7.228-2.479,7.523-6.374l33.063-18.007h101.946c1.214,3,3.799,3.686,6.802,3.686c4.163,0,7.539-3.182,7.539-7.345
		C317.245,187.676,313.869,184.496,309.706,184.496z"/>
	<path fill="none" stroke="#34495E" stroke-miterlimit="10" d="M20.208,142.917c2.884,0,5.386,2.583,6.654,4.583h100.6h1.109h0.886
		l0,0l39.319,24h152.901c1.268-3,3.771-5.27,6.654-5.27c4.164,0,7.541,2.737,7.541,6.902c0,4.166-3.377,8.105-7.541,8.105
		c-3.003,0-5.588-1.738-6.8-3.738H167.209l0,0l-40.416-21H27.01c-1.215,1-3.801,2.605-6.802,2.605c-4.163,0-7.541-3.929-7.541-8.094
		C12.667,146.848,16.045,142.917,20.208,142.917z"/>
	<path fill="none" stroke="#34495E" stroke-miterlimit="10" d="M356.689,90.295c-2.882,0-5.386,2.205-6.655,5.205H245.146l0,0l0,0
		l-33.071,17.202c-1.316-1.123-2.927-2.077-4.792-2.077c-4.165,0-7.492,3.24-7.492,7.405c0,4.165,3.399,7.473,7.563,7.473
		c3.97,0,7.23-2.291,7.524-6.186l33.064-17.817h101.945c1.215,3,3.799,3.484,6.802,3.484c4.164,0,7.541-3.18,7.541-7.345
		C364.23,93.475,360.854,90.295,356.689,90.295z"/>
</g>
<g>
	<rect x="654" y="31" fill="#FFFFFF" width="241" height="138"/>
	<path fill="#E6E6E6" d="M907,179v15.908c0,3.417-2.992,6.092-6.409,6.092H650.164c-3.418,0-7.164-2.675-7.164-6.092V179
		c0,0,5.695,0,7.609,0h249.477C901.926,179,907,179,907,179z"/>
	<path fill="#333333" d="M906.801,24.26c-0.036-0.16-0.113-0.32-0.158-0.471c-0.025-0.06-0.059,0.224-0.078,0.167
		C905.709,21.462,903.13,20,900.148,20H650.671c-2.863,0-5.3,1.319-6.229,3.662c-0.052,0.118-0.094,0.063-0.135,0.182
		c-0.059,0.193-0.624,0.299-0.664,0.501c-0.078,0.376-0.643,0.688-0.643,1.091v147.422c0,1.621,0,7.143,0,7.143s5.755,0,7.671,0
		h249.478c1.838,0,6.852,0,6.852,0s0-5.465,0-7.143V25.436C907,25.032,906.875,24.636,906.801,24.26z M895,169H654V31h241V169z"/>
	<rect x="747" y="233" fill="#CCCCCC" width="56" height="6"/>
	<path fill="#E6E6E6" d="M800.165,233h-49.452c0,0,6.577-3,6.577-32h35.845C793.135,231,800.165,233,800.165,233z"/>
	<rect x="757" y="201" fill="#CCCCCC" width="36" height="2"/>
</g>
<g>
	<path fill="#34495E" d="M717.828,79.6h-8.664V62.8h1.344v15.6h7.32V79.6z"/>
	<path fill="#34495E" d="M722.699,78.712c1.104,0,2.271-0.328,3.504-0.984l0.527,1.032c-1.231,0.752-2.52,1.128-3.863,1.128
		c-2.784,0-4.176-1.168-4.176-3.504v-4.92c0-1.296,0.403-2.305,1.211-3.024c0.809-0.72,1.877-1.08,3.205-1.08
		s2.363,0.356,3.107,1.068s1.116,1.7,1.116,2.964v3.12l-7.296,0.408v1.464c0,0.864,0.312,1.488,0.936,1.872
		C721.451,78.56,722.027,78.712,722.699,78.712z M725.987,73.312v-2.088c0-0.688-0.185-1.252-0.552-1.692
		c-0.369-0.439-0.753-0.72-1.152-0.84c-0.4-0.12-0.801-0.18-1.2-0.18c-0.88,0-1.608,0.24-2.185,0.72
		c-0.575,0.48-0.863,1.232-0.863,2.256V73.6L725.987,73.312z"/>
	<path fill="#34495E" d="M734.411,79.84c-3.504,0-5.256-1.432-5.256-4.296v-1.992c0-1.584,0.552-2.648,1.655-3.192
		c0.576-0.271,1.145-0.408,1.705-0.408c1.887,0,3.399,0.448,4.535,1.345c0-0.88-0.256-1.58-0.768-2.101
		c-0.512-0.52-1.496-0.779-2.952-0.779l0.072-1.032c1.296,0,2.256,0.152,2.88,0.456c0.336,0.176,0.632,0.352,0.888,0.527
		c0.256,0.177,0.456,0.408,0.601,0.696c0.144,0.288,0.264,0.54,0.359,0.756s0.16,0.509,0.192,0.876
		c0.048,0.561,0.071,1.145,0.071,1.752V79.6C736.73,79.76,735.402,79.84,734.411,79.84z M737.051,78.496v-6.169
		c-1.328-0.64-2.688-1.016-4.08-1.128c-0.096-0.016-0.191-0.023-0.287-0.023c-0.609,0-1.129,0.188-1.561,0.563
		c-0.432,0.377-0.648,1.005-0.648,1.885v2.088c0,1.328,0.576,2.192,1.729,2.592c0.672,0.24,1.432,0.36,2.279,0.36
		C735.331,78.664,736.188,78.607,737.051,78.496z"/>
	<path fill="#34495E" d="M746.363,68.8c-0.609-0.16-1.225-0.24-1.849-0.24s-1.188,0.141-1.692,0.42
		c-0.504,0.28-0.756,0.685-0.756,1.212V79.6h-1.344V67.575h1.344l-0.072,0.841c0.752-0.688,1.744-1.032,2.977-1.032
		c0.544,0,1.128,0.063,1.752,0.191L746.363,68.8z"/>
	<path fill="#34495E" d="M749.267,68.392c0.815-0.688,1.96-1.032,3.432-1.032c0.832,0,1.544,0.152,2.136,0.456
		c1.36,0.624,2.041,1.784,2.041,3.48V79.6h-1.32v-8.232c0-0.831-0.225-1.479-0.672-1.943c-0.545-0.561-1.356-0.84-2.437-0.84
		s-2.108,0.271-3.084,0.815v10.2h-1.344V67.575h1.344L749.267,68.392z"/>
	<path fill="#34495E" d="M760.103,79.359c-0.152,0.16-0.341,0.24-0.563,0.24c-0.225,0-0.412-0.08-0.564-0.24
		c-0.152-0.159-0.229-0.344-0.229-0.552s0.076-0.392,0.229-0.552s0.34-0.24,0.564-0.24c0.223,0,0.411,0.08,0.563,0.24
		c0.151,0.16,0.228,0.344,0.228,0.552S760.254,79.2,760.103,79.359z"/>
	<path fill="#34495E" d="M771.468,108.399h-1.344v-8.592h-7.632v8.592h-1.344V91.6h1.344v6.888h7.632V91.6h1.344V108.399z"/>
	<path fill="#34495E" d="M779.531,108.64c-3.504,0-5.256-1.432-5.256-4.296v-1.992c0-1.584,0.553-2.648,1.656-3.192
		c0.576-0.271,1.145-0.408,1.704-0.408c1.888,0,3.399,0.448,4.536,1.345c0-0.88-0.256-1.58-0.768-2.101
		c-0.513-0.52-1.497-0.779-2.953-0.779l0.072-1.032c1.297,0,2.256,0.152,2.881,0.456c0.336,0.176,0.631,0.352,0.887,0.527
		c0.256,0.177,0.457,0.408,0.601,0.696s0.265,0.54,0.36,0.756s0.16,0.509,0.191,0.876c0.049,0.561,0.072,1.145,0.072,1.752v7.152
		C781.852,108.56,780.523,108.64,779.531,108.64z M782.172,107.296v-6.169c-1.328-0.64-2.688-1.016-4.08-1.128
		c-0.096-0.016-0.191-0.023-0.288-0.023c-0.608,0-1.128,0.188-1.56,0.563c-0.433,0.377-0.648,1.005-0.648,1.885v2.088
		c0,1.328,0.576,2.192,1.729,2.592c0.672,0.24,1.432,0.36,2.279,0.36S781.308,107.407,782.172,107.296z"/>
	<path fill="#34495E" d="M790.283,107.487c0.721,0,1.52-0.104,2.4-0.312l0.287,1.08c-1.023,0.271-1.951,0.407-2.783,0.407
		s-1.648-0.128-2.448-0.384c-1.664-0.544-2.496-1.944-2.496-4.2v-3.071c0-1.137,0.224-2.089,0.673-2.856
		c0.768-1.328,2.031-1.992,3.791-1.992c1.057,0,2.128,0.257,3.217,0.769l-0.385,0.983c-0.912-0.352-1.699-0.527-2.363-0.527
		s-1.252,0.08-1.764,0.239c-0.514,0.16-0.945,0.521-1.297,1.08c-0.352,0.561-0.527,1.28-0.527,2.16v3.48
		C786.588,106.439,787.819,107.487,790.283,107.487z"/>
	<path fill="#34495E" d="M803.123,108.399h-1.607l-4.607-7.608l-1.248,1.08v6.528h-1.345V91.6h1.345v8.76l4.799-4.44l0.961,0.937
		l-3.553,3.096C798.955,101.76,800.707,104.575,803.123,108.399z"/>
	<path fill="#34495E" d="M804.743,108.159c-0.152,0.16-0.341,0.24-0.563,0.24c-0.225,0-0.412-0.08-0.564-0.24
		c-0.152-0.159-0.229-0.344-0.229-0.552s0.076-0.392,0.229-0.552s0.34-0.24,0.564-0.24c0.223,0,0.411,0.08,0.563,0.24
		c0.151,0.16,0.228,0.344,0.228,0.552S804.895,108,804.743,108.159z"/>
	<path fill="#34495E" d="M811.836,137.2h-1.344v-16.8h8.016v1.271h-6.672v5.616h4.104l-0.552,1.32h-3.552V137.2z"/>
	<path fill="#34495E" d="M820.859,120.964c0,0.217-0.08,0.404-0.24,0.564s-0.348,0.24-0.564,0.24c-0.215,0-0.403-0.084-0.563-0.252
		s-0.239-0.356-0.239-0.564s0.079-0.392,0.239-0.552s0.353-0.24,0.576-0.24s0.411,0.08,0.563,0.24S820.859,120.748,820.859,120.964z
		 M820.715,137.2h-1.344v-12.024h1.344V137.2z"/>
	<path fill="#34495E" d="M833.724,137.2h-1.584l-2.952-4.728l-2.951,4.728h-1.584l3.744-5.976l-3.744-6.049h1.512l3.023,4.801
		l3.024-4.801h1.512l-3.769,6.049L833.724,137.2z"/>
	<path fill="#34495E" d="M836.135,136.96c-0.152,0.16-0.34,0.24-0.563,0.24c-0.225,0-0.412-0.08-0.563-0.24
		c-0.152-0.159-0.229-0.344-0.229-0.552s0.076-0.392,0.229-0.552c0.151-0.16,0.339-0.24,0.563-0.24c0.224,0,0.411,0.08,0.563,0.24
		s0.229,0.344,0.229,0.552S836.287,136.801,836.135,136.96z"/>
</g>
</svg>
