<?xml version="1.0" encoding="utf-8"?>
<!-- Generator: Adobe Illustrator 16.0.4, SVG Export Plug-In . SVG Version: 6.00 Build 0)  -->
<!DOCTYPE svg PUBLIC "-//W3C//DTD SVG 1.1//EN" "http://www.w3.org/Graphics/SVG/1.1/DTD/svg11.dtd">
<svg version="1.1" id="Layer_1" xmlns="http://www.w3.org/2000/svg" xmlns:xlink="http://www.w3.org/1999/xlink" x="0px" y="0px"
	 width="200px" height="280px" viewBox="0 0 200 280" enable-background="new 0 0 200 280" xml:space="preserve">
<g>
	<polygon fill="#3498DB" points="83,147.946 83,172.414 88,175.254 88,205.453 100,212.213 100,276.881 99.443,277 2,244.617 
		2,121.779 18.031,115.229 19.201,114.818 39.846,106.218 40.136,106.084 40.472,105.942 40.691,105.883 41,105.801 41,105.764 
		100,80.677 100,140.732 	"/>
	<polygon fill="#29ABE2" points="40.568,105.883 40.472,105.942 40.136,106.084 40.427,105.942 	"/>
	<polygon fill="#3498DB" points="100,1.64 100,23.35 41,48.205 41,105.764 40.691,105.883 40.488,105.942 40.167,106.084 
		39.745,106.218 19,114.818 19,35.595 	"/>
	<polygon fill="#29ABE2" points="40.568,105.883 40.472,105.942 40.136,106.084 40.427,105.942 	"/>
	<polygon fill="#34495E" points="158.696,105.883 158.793,105.942 159.129,106.084 158.837,105.942 	"/>
	<polygon fill="#34495E" points="158.837,105.942 158.696,105.883 158.793,105.942 159.129,106.084 	"/>
	<polygon fill="#34495E" points="116,147.946 116,172.414 111,175.254 111,205.453 100,212.213 100,276.881 100.057,277 
		197,244.617 197,121.779 181.037,115.229 179.902,114.818 159.275,106.218 158.993,106.084 158.662,105.942 158.876,105.883 
		159,105.801 159,105.764 100,80.677 100,140.732 	"/>
	<polygon fill="#34495E" points="158.569,105.883 158.666,105.942 159.002,106.084 158.711,105.942 	"/>
	<polygon fill="#34495E" points="100,1.64 100,23.35 159,48.205 159,105.764 158.878,105.883 158.865,105.942 159.079,106.084 
		159.377,106.218 180,114.818 180,35.595 	"/>
	<polygon fill="#34495E" points="158.569,105.883 158.666,105.942 159.002,106.084 158.711,105.942 	"/>
	<polygon fill="#2E3192" points="40.442,105.883 40.345,105.942 40.01,106.084 40.301,105.942 	"/>
	<polygon fill="#2E3192" points="40.301,105.942 40.442,105.883 40.345,105.942 40.01,106.084 	"/>
</g>
</svg>
