<?xml version="1.0" encoding="utf-8"?>
<!-- Generator: Adobe Illustrator 16.0.4, SVG Export Plug-In . SVG Version: 6.00 Build 0)  -->
<!DOCTYPE svg PUBLIC "-//W3C//DTD SVG 1.1//EN" "http://www.w3.org/Graphics/SVG/1.1/DTD/svg11.dtd">
<svg version="1.1" id="Layer_1" xmlns="http://www.w3.org/2000/svg" xmlns:xlink="http://www.w3.org/1999/xlink" x="0px" y="0px"
	 width="256px" height="60px" viewBox="0 0 1280 300" enable-background="new 0 0 1280 300" xml:space="preserve">
<g>
	<polygon fill="#3498DB" points="101,158.946 101,183.414 106,186.254 106,216.453 118,223.213 118,287.881 117.443,288 20,255.617 
		20,132.779 36.031,126.229 37.201,125.818 57.846,117.218 58.136,117.084 58.472,116.942 58.691,116.883 59,116.801 59,116.764 
		118,91.677 118,151.732 	"/>
	<polygon fill="#29ABE2" points="58.568,116.883 58.472,116.942 58.136,117.084 58.427,116.942 	"/>
	<polygon fill="#3498DB" points="118,12.64 118,34.35 59,59.205 59,116.764 58.691,116.883 58.488,116.942 58.167,117.084 
		57.745,117.218 37,125.818 37,46.595 	"/>
	<polygon fill="#29ABE2" points="58.568,116.883 58.472,116.942 58.136,117.084 58.427,116.942 	"/>
	<polygon fill="#34495E" points="176.696,116.883 176.793,116.942 177.129,117.084 176.837,116.942 	"/>
	<polygon fill="#34495E" points="176.837,116.942 176.696,116.883 176.793,116.942 177.129,117.084 	"/>
	<polygon fill="#34495E" points="134,158.946 134,183.414 129,186.254 129,216.453 118,223.213 118,287.881 118.057,288 
		215,255.617 215,132.779 199.037,126.229 197.902,125.818 177.275,117.218 176.993,117.084 176.662,116.942 176.876,116.883 
		177,116.801 177,116.764 118,91.677 118,151.732 	"/>
	<polygon fill="#34495E" points="176.569,116.883 176.666,116.942 177.002,117.084 176.711,116.942 	"/>
	<polygon fill="#34495E" points="118,12.64 118,34.35 177,59.205 177,116.764 176.878,116.883 176.865,116.942 177.079,117.084 
		177.377,117.218 198,125.818 198,46.595 	"/>
	<polygon fill="#34495E" points="176.569,116.883 176.666,116.942 177.002,117.084 176.711,116.942 	"/>
	<polygon fill="#2E3192" points="58.442,116.883 58.345,116.942 58.01,117.084 58.301,116.942 	"/>
	<polygon fill="#2E3192" points="58.301,116.942 58.442,116.883 58.345,116.942 58.01,117.084 	"/>
</g>
<g>
	<path fill="#34495E" d="M268.458,128.607h-12.695v-11.475h12.695V128.607z M268.458,192.23h-12.695v-52.783h12.695V192.23z"/>
	<path fill="#34495E" d="M339.112,192.23h-12.695v-29.297c0-1.66-0.285-3.149-0.854-4.468c-0.57-1.318-1.343-2.449-2.319-3.394
		c-0.977-0.943-2.124-1.668-3.442-2.173c-1.318-0.504-2.743-0.757-4.272-0.757h-22.217v40.088h-12.695v-46.484
		c0-0.879,0.163-1.7,0.488-2.466c0.325-0.765,0.781-1.432,1.367-2.002c0.586-0.569,1.27-1.017,2.051-1.343
		c0.781-0.325,1.611-0.488,2.49-0.488h28.613c1.595,0,3.279,0.18,5.054,0.537c1.774,0.358,3.532,0.937,5.273,1.733
		c1.741,0.798,3.401,1.807,4.98,3.027c1.579,1.221,2.979,2.702,4.199,4.443c1.221,1.742,2.189,3.752,2.905,6.03
		c0.716,2.279,1.074,4.851,1.074,7.715V192.23z"/>
	<path fill="#34495E" d="M396.974,129.242H368.36c-1.726,0-3.027,0.432-3.906,1.294c-0.879,0.863-1.318,2.124-1.318,3.784v57.91
		H350.44v-57.91c0-2.181,0.276-4.134,0.83-5.859c0.553-1.725,1.294-3.247,2.222-4.565s1.994-2.441,3.198-3.369
		c1.204-0.928,2.466-1.685,3.784-2.271s2.645-1.017,3.979-1.294c1.334-0.276,2.604-0.415,3.809-0.415h28.711V129.242z
		 M396.974,152.143h-28.711v-12.695h28.711V152.143z"/>
	<path fill="#34495E" d="M462.501,174.408c0,2.182-0.277,4.143-0.83,5.884c-0.554,1.742-1.286,3.271-2.197,4.59
		c-0.912,1.318-1.97,2.441-3.174,3.369c-1.205,0.928-2.466,1.685-3.784,2.271s-2.653,1.018-4.004,1.294
		c-1.351,0.277-2.629,0.415-3.833,0.415h-22.9c-1.758,0-3.679-0.309-5.762-0.928c-2.083-0.618-4.012-1.636-5.786-3.052
		c-1.774-1.416-3.255-3.255-4.443-5.518c-1.188-2.262-1.782-5.037-1.782-8.325v-17.188c0-3.255,0.594-6.014,1.782-8.276
		c1.188-2.262,2.669-4.102,4.443-5.518c1.774-1.416,3.703-2.433,5.786-3.052c2.083-0.618,4.004-0.928,5.762-0.928h22.9
		c3.255,0,6.022,0.586,8.301,1.758c2.278,1.172,4.118,2.646,5.518,4.419c1.399,1.774,2.417,3.703,3.052,5.786
		c0.635,2.084,0.952,4.021,0.952,5.811V174.408z M449.806,157.318c0-1.758-0.439-3.06-1.318-3.906
		c-0.879-0.846-2.148-1.27-3.809-1.27h-22.803c-1.693,0-2.979,0.432-3.857,1.294c-0.879,0.863-1.318,2.124-1.318,3.784v17.188
		c0,1.66,0.439,2.93,1.318,3.809s2.165,1.318,3.857,1.318h22.803c1.725,0,3.011-0.439,3.857-1.318
		c0.846-0.879,1.27-2.148,1.27-3.809V157.318z"/>
	<path fill="#34495E" d="M524.317,174.408c0,2.182-0.277,4.143-0.83,5.884c-0.554,1.742-1.286,3.271-2.197,4.59
		c-0.912,1.318-1.97,2.441-3.174,3.369c-1.205,0.928-2.466,1.685-3.784,2.271s-2.653,1.018-4.004,1.294
		c-1.351,0.277-2.629,0.415-3.833,0.415H472.12v-12.695h34.277c1.725,0,3.027-0.439,3.906-1.318s1.318-2.148,1.318-3.809
		c-0.163-3.385-1.872-5.078-5.127-5.078h-19.678c-2.8,0-5.176-0.488-7.129-1.465s-3.54-2.197-4.761-3.662s-2.1-3.043-2.637-4.736
		c-0.537-1.692-0.806-3.271-0.806-4.736c0-2.832,0.504-5.216,1.514-7.153c1.009-1.937,2.278-3.507,3.809-4.712
		c1.53-1.204,3.19-2.075,4.98-2.612c1.79-0.537,3.467-0.806,5.029-0.806h31.201v12.695h-31.104c-0.651,0-1.164,0.073-1.538,0.22
		c-0.375,0.146-0.651,0.342-0.83,0.586c-0.179,0.244-0.285,0.505-0.317,0.781c-0.033,0.277-0.049,0.546-0.049,0.806
		c0.032,0.521,0.13,0.928,0.293,1.221c0.163,0.293,0.366,0.505,0.61,0.635c0.244,0.131,0.521,0.204,0.83,0.22
		c0.309,0.017,0.61,0.024,0.903,0.024h19.678c3.255,0,6.022,0.586,8.301,1.758c2.278,1.172,4.118,2.646,5.518,4.419
		c1.399,1.774,2.417,3.703,3.052,5.786C524,170.682,524.317,172.618,524.317,174.408z"/>
	<path fill="#34495E" d="M589.991,156.928c0,1.758-0.31,3.654-0.928,5.688c-0.619,2.035-1.62,3.923-3.003,5.664
		c-1.384,1.742-3.19,3.198-5.42,4.37c-2.23,1.172-4.94,1.758-8.13,1.758h-22.9v-12.061h22.9c1.725,0,3.06-0.528,4.004-1.587
		c0.943-1.058,1.416-2.368,1.416-3.931c0-1.66-0.529-2.962-1.587-3.906c-1.059-0.943-2.336-1.416-3.833-1.416h-22.9
		c-1.726,0-3.06,0.529-4.004,1.587c-0.944,1.059-1.416,2.368-1.416,3.931v17.725c0,1.693,0.529,3.012,1.587,3.955
		c1.058,0.944,2.368,1.416,3.931,1.416h22.803v12.109h-22.9c-1.758,0-3.654-0.309-5.688-0.928c-2.035-0.618-3.923-1.619-5.664-3.003
		c-1.742-1.383-3.198-3.189-4.37-5.42c-1.172-2.229-1.758-4.939-1.758-8.13v-17.822c0-1.758,0.309-3.653,0.928-5.688
		c0.618-2.034,1.619-3.922,3.003-5.664c1.383-1.741,3.19-3.198,5.42-4.37c2.229-1.172,4.939-1.758,8.13-1.758h22.9
		c1.758,0,3.653,0.31,5.688,0.928c2.034,0.619,3.922,1.62,5.664,3.003c1.741,1.384,3.198,3.19,4.37,5.42
		C589.405,151.028,589.991,153.738,589.991,156.928z"/>
	<path fill="#34495E" d="M649.659,192.23h-34.424c-1.758,0-3.679-0.309-5.762-0.928c-2.084-0.618-4.013-1.636-5.786-3.052
		c-1.774-1.416-3.256-3.255-4.443-5.518c-1.188-2.262-1.782-5.037-1.782-8.325v-17.188c0-1.204,0.138-2.474,0.415-3.809
		c0.276-1.334,0.708-2.661,1.294-3.979s1.343-2.579,2.271-3.784c0.928-1.204,2.051-2.262,3.369-3.174
		c1.318-0.911,2.84-1.644,4.565-2.197c1.725-0.553,3.678-0.83,5.859-0.83h34.424v12.695h-34.424c-1.66,0-2.922,0.424-3.784,1.27
		c-0.863,0.847-1.294,2.148-1.294,3.906v17.09c0,1.66,0.439,2.93,1.318,3.809s2.164,1.318,3.857,1.318h34.326V192.23z"/>
	<path fill="#34495E" d="M750.393,185.834c0,0.912-0.164,1.758-0.488,2.539c-0.326,0.781-0.773,1.457-1.344,2.026
		c-0.57,0.57-1.236,1.018-2.002,1.343c-0.766,0.326-1.586,0.488-2.465,0.488h-28.711c-1.562,0-3.232-0.179-5.006-0.537
		c-1.773-0.357-3.523-0.936-5.248-1.733c-1.727-0.797-3.395-1.807-5.006-3.027s-3.02-2.701-4.223-4.443
		c-1.205-1.741-2.174-3.751-2.906-6.03c-0.732-2.278-1.098-4.85-1.098-7.715v-29.297h12.695v29.297c0,1.66,0.283,3.149,0.854,4.468
		s1.344,2.45,2.32,3.394c0.977,0.944,2.123,1.669,3.441,2.173c1.318,0.505,2.742,0.757,4.273,0.757h22.217v-40.088h12.695V185.834z"
		/>
	<path fill="#34495E" d="M820.803,192.23h-12.695v-29.297c0-1.66-0.285-3.149-0.855-4.468s-1.342-2.449-2.318-3.394
		c-0.977-0.943-2.125-1.668-3.443-2.173c-1.318-0.504-2.742-0.757-4.271-0.757h-22.217v40.088h-12.695v-46.484
		c0-0.879,0.162-1.7,0.488-2.466c0.324-0.765,0.781-1.432,1.367-2.002c0.586-0.569,1.27-1.017,2.051-1.343
		c0.781-0.325,1.611-0.488,2.49-0.488h28.613c1.594,0,3.279,0.18,5.053,0.537c1.773,0.358,3.531,0.937,5.273,1.733
		c1.742,0.798,3.402,1.807,4.98,3.027s2.979,2.702,4.199,4.443c1.221,1.742,2.189,3.752,2.906,6.03
		c0.715,2.279,1.074,4.851,1.074,7.715V192.23z"/>
	<path fill="#34495E" d="M844.826,128.607h-12.695v-11.475h12.695V128.607z M844.826,192.23h-12.695v-52.783h12.695V192.23z"/>
	<path fill="#34495E" d="M919.973,139.447c-1.434,4.46-3.109,8.854-5.029,13.184c-1.922,4.33-4.127,8.456-6.617,12.378
		c-2.49,3.923-5.273,7.553-8.35,10.889c-3.076,3.337-6.479,6.218-10.205,8.643c-3.727,2.426-7.779,4.33-12.158,5.713
		c-4.379,1.384-9.123,2.075-14.232,2.075c-0.879,0-1.709-0.162-2.49-0.488c-0.781-0.325-1.465-0.772-2.051-1.343
		c-0.586-0.569-1.043-1.236-1.367-2.002c-0.326-0.765-0.488-1.587-0.488-2.466v-46.582h12.695v39.697
		c3.092,0,6.062-0.667,8.91-2.002c2.848-1.334,5.543-3.101,8.082-5.298s4.891-4.695,7.055-7.495
		c2.164-2.799,4.094-5.672,5.787-8.618c1.691-2.945,3.133-5.835,4.32-8.667s2.076-5.371,2.662-7.617H919.973z"/>
	<path fill="#34495E" d="M981.301,156.928c0,1.758-0.311,3.654-0.928,5.688c-0.619,2.035-1.621,3.923-3.004,5.664
		c-1.383,1.742-3.189,3.198-5.42,4.37s-4.939,1.758-8.129,1.758h-22.9v-12.061h22.9c1.725,0,3.059-0.528,4.004-1.587
		c0.943-1.058,1.416-2.368,1.416-3.931c0-1.66-0.529-2.962-1.588-3.906c-1.059-0.943-2.336-1.416-3.832-1.416h-22.9
		c-1.727,0-3.061,0.529-4.004,1.587c-0.945,1.059-1.416,2.368-1.416,3.931v17.725c0,1.693,0.527,3.012,1.586,3.955
		c1.059,0.944,2.369,1.416,3.932,1.416h22.803v12.109h-22.9c-1.758,0-3.654-0.309-5.689-0.928c-2.035-0.618-3.922-1.619-5.664-3.003
		c-1.742-1.383-3.197-3.189-4.369-5.42c-1.172-2.229-1.758-4.939-1.758-8.13v-17.822c0-1.758,0.309-3.653,0.928-5.688
		c0.617-2.034,1.619-3.922,3.002-5.664c1.383-1.741,3.189-3.198,5.42-4.37s4.939-1.758,8.131-1.758h22.9
		c1.758,0,3.652,0.31,5.688,0.928c2.035,0.619,3.922,1.62,5.664,3.003c1.742,1.384,3.199,3.19,4.371,5.42
		C980.715,151.028,981.301,153.738,981.301,156.928z"/>
	<path fill="#34495E" d="M1036.037,152.143h-28.564c-1.727,0-3.027,0.432-3.906,1.294c-0.879,0.863-1.318,2.124-1.318,3.784v35.01
		h-12.695v-35.01c0-2.181,0.275-4.134,0.83-5.859c0.553-1.725,1.293-3.247,2.221-4.565s1.994-2.441,3.199-3.369
		c1.203-0.928,2.465-1.685,3.783-2.271s2.652-1.017,4.004-1.294c1.352-0.276,2.613-0.415,3.785-0.415h28.662V152.143z"/>
	<path fill="#34495E" d="M1095.412,174.408c0,2.182-0.277,4.143-0.83,5.884c-0.555,1.742-1.287,3.271-2.197,4.59
		c-0.912,1.318-1.971,2.441-3.174,3.369c-1.205,0.928-2.467,1.685-3.785,2.271s-2.652,1.018-4.004,1.294
		c-1.352,0.277-2.629,0.415-3.832,0.415h-34.375v-12.695h34.277c1.725,0,3.027-0.439,3.906-1.318s1.318-2.148,1.318-3.809
		c-0.164-3.385-1.873-5.078-5.127-5.078h-19.678c-2.801,0-5.176-0.488-7.129-1.465s-3.541-2.197-4.762-3.662s-2.1-3.043-2.637-4.736
		c-0.537-1.692-0.805-3.271-0.805-4.736c0-2.832,0.504-5.216,1.514-7.153c1.008-1.937,2.277-3.507,3.809-4.712
		c1.529-1.204,3.189-2.075,4.98-2.612c1.789-0.537,3.467-0.806,5.029-0.806h31.201v12.695h-31.104c-0.652,0-1.164,0.073-1.539,0.22
		s-0.65,0.342-0.83,0.586s-0.285,0.505-0.316,0.781c-0.033,0.277-0.049,0.546-0.049,0.806c0.031,0.521,0.129,0.928,0.293,1.221
		c0.162,0.293,0.365,0.505,0.609,0.635c0.244,0.131,0.521,0.204,0.83,0.22c0.309,0.017,0.611,0.024,0.904,0.024h19.678
		c3.254,0,6.021,0.586,8.301,1.758c2.277,1.172,4.117,2.646,5.518,4.419c1.398,1.774,2.416,3.703,3.051,5.786
		C1095.094,170.682,1095.412,172.618,1095.412,174.408z"/>
	<path fill="#34495E" d="M1117.189,128.607h-12.695v-11.475h12.695V128.607z M1117.189,192.23h-12.695v-52.783h12.695V192.23z"/>
	<path fill="#34495E" d="M1177.346,152.143h-22.168v40.088h-12.842v-40.088h-16.504v-12.695h16.504v-17.236h12.842v17.236h22.168
		V152.143z"/>
	<path fill="#34495E" d="M1226.125,192.23h-22.9c-1.824,0-3.77-0.309-5.836-0.928c-2.066-0.618-3.996-1.636-5.785-3.052
		c-1.791-1.416-3.271-3.255-4.443-5.518c-1.172-2.262-1.758-5.037-1.758-8.325v-34.961h12.695v34.961c0,1.66,0.439,2.93,1.318,3.809
		s2.18,1.318,3.906,1.318h22.803V192.23z M1243.898,197.309c0,2.181-0.277,4.142-0.83,5.884c-0.555,1.741-1.287,3.271-2.197,4.59
		c-0.912,1.318-1.971,2.441-3.174,3.369c-1.205,0.928-2.467,1.685-3.785,2.271s-2.645,1.017-3.979,1.294
		c-1.336,0.276-2.605,0.415-3.809,0.415h-22.9v-12.695h22.9c1.691,0,2.961-0.439,3.809-1.318c0.846-0.879,1.27-2.148,1.27-3.809
		v-57.861h12.695V197.309z"/>
</g>
</svg>
